<?xml version="1.0" ?>
<svg xmlns="http://www.w3.org/2000/svg" viewBox="0 0 512 512" aria-label="logo" role="img" width="512" height="512">

    <g transform="scale(0.256)">
        <path d="M 766,692 L 766,737 L 772,737 L 773,706 L 795,737 L 800,737 L 800,692 L 794,692 L 793,722 L 773,693 Z"
              fill="black"/>
        <path d="M 719,692 L 714,694 L 707,701 L 703,711 L 704,722 L 709,731 L 718,737 L 732,737 L 739,733 L 746,723 L 746,706 L 738,695 L 732,692 Z"
              fill="black"/>
        <path d="M 722,698 L 729,698 L 733,700 L 738,706 L 740,712 L 740,718 L 737,725 L 729,731 L 721,731 L 713,725 L 710,718 L 710,711 L 712,706 Z"
              fill="white"/>
        <path d="M 663,692 L 663,737 L 692,737 L 692,731 L 669,730 L 669,692 Z" fill="black"/>
        <path d="M 623,692 L 605,737 L 612,737 L 614,730 L 617,726 L 635,726 L 640,737 L 647,737 L 630,693 Z"
              fill="black"/>
        <path d="M 626,702 L 632,715 L 632,720 L 619,719 Z" fill="white"/>
        <path d="M 570,692 L 566,694 L 562,700 L 562,709 L 567,715 L 584,721 L 586,726 L 582,731 L 572,731 L 563,726 L 561,731 L 570,737 L 584,737 L 592,729 L 592,720 L 587,714 L 570,708 L 568,706 L 568,702 L 572,698 L 581,698 L 588,702 L 591,697 L 583,692 Z"
              fill="black"/>
        <path d="M 480,692 L 489,708 L 496,717 L 496,737 L 502,737 L 502,719 L 518,694 L 518,692 L 512,692 L 500,710 L 498,709 L 487,692 Z"
              fill="pink"/>
        <path d="M 430,692 L 430,698 L 442,698 L 444,700 L 444,737 L 450,737 L 450,699 L 465,698 L 465,692 Z"
              fill="black"/>
        <path d="M 379,692 L 380,729 L 384,734 L 390,737 L 405,736 L 411,730 L 413,724 L 413,692 L 407,692 L 406,724 L 399,731 L 392,731 L 387,727 L 385,722 L 385,692 Z"
              fill="black"/>
        <path d="M 339,692 L 321,737 L 327,737 L 333,726 L 351,726 L 356,737 L 363,737 L 346,693 Z" fill="black"/>
        <path d="M 342,703 L 349,718 L 348,720 L 335,719 Z" fill="white"/>
        <path d="M 276,692 L 276,737 L 306,737 L 306,731 L 281,730 L 282,717 L 304,717 L 304,711 L 282,711 L 282,700 L 305,699 L 305,692 Z"
              fill="black"/>
        <path d="M 223,692 L 223,736 L 248,737 L 254,734 L 258,727 L 257,719 L 251,713 L 255,707 L 254,697 L 246,692 Z"
              fill="black"/>
        <path d="M 229,720 L 231,718 L 246,718 L 250,721 L 251,726 L 248,730 L 245,731 L 230,731 Z" fill="white"/>
        <path d="M 229,700 L 231,698 L 242,698 L 248,702 L 249,706 L 245,711 L 231,712 L 229,710 Z" fill="white"/>
        <path d="M 660,491 L 660,496 L 665,497 L 668,500 L 669,505 L 669,604 L 666,617 L 660,619 L 659,623 L 671,625 L 702,624 L 703,621 L 696,618 L 693,615 L 691,608 L 691,571 L 697,565 L 700,564 L 713,581 L 731,609 L 734,616 L 729,620 L 730,624 L 773,624 L 773,620 L 768,619 L 759,611 L 713,545 L 741,510 L 748,503 L 755,502 L 765,496 L 766,492 L 728,491 L 728,495 L 736,500 L 735,505 L 692,560 L 692,501 L 696,497 L 701,496 L 703,494 L 703,491 Z"
              fill="black"/>
        <path d="M 473,491 L 472,494 L 483,503 L 487,511 L 525,624 L 538,624 L 546,595 L 561,553 L 564,556 L 585,623 L 599,623 L 631,513 L 636,503 L 641,498 L 646,496 L 648,493 L 642,490 L 612,491 L 612,495 L 621,499 L 625,507 L 601,591 L 598,592 L 594,586 L 578,531 L 569,506 L 569,500 L 577,495 L 577,491 L 535,491 L 534,494 L 540,497 L 545,502 L 548,508 L 558,539 L 541,590 L 537,592 L 533,584 L 507,506 L 508,499 L 517,496 L 518,492 L 514,490 Z"
              fill="black"/>
        <path d="M 237,491 L 236,494 L 243,497 L 247,502 L 248,601 L 246,614 L 242,618 L 237,620 L 236,623 L 241,625 L 281,624 L 281,620 L 275,618 L 271,614 L 270,610 L 269,570 L 273,568 L 279,568 L 286,570 L 291,575 L 320,624 L 348,624 L 350,621 L 349,619 L 343,617 L 337,611 L 313,573 L 306,566 L 323,559 L 328,554 L 334,544 L 336,536 L 336,521 L 331,509 L 327,504 L 318,497 L 303,491 Z"
              fill="black"/>
        <path d="M 276,496 L 291,497 L 299,500 L 309,510 L 314,524 L 314,536 L 311,546 L 302,556 L 291,561 L 271,562 L 269,560 L 270,501 L 273,497 Z"
              fill="white"/>
        <path d="M 208,500 L 199,495 L 179,490 L 123,491 L 123,495 L 127,496 L 132,501 L 133,507 L 133,612 L 129,618 L 123,620 L 123,624 L 189,624 L 197,622 L 207,617 L 220,605 L 224,593 L 224,583 L 220,572 L 212,563 L 192,553 L 207,547 L 215,539 L 219,530 L 218,514 L 213,505 Z"
              fill="black"/>
        <path d="M 156,558 L 180,559 L 189,563 L 197,571 L 201,582 L 200,598 L 196,606 L 186,615 L 177,618 L 167,619 L 159,618 L 156,615 Z"
              fill="black"/>
        <path d="M 159,496 L 172,497 L 185,502 L 193,509 L 196,515 L 196,534 L 192,541 L 182,549 L 171,552 L 155,551 L 155,502 L 156,498 Z"
              fill="black"/>
        <path d="M 830,491 L 826,498 L 796,604 L 791,613 L 787,617 L 781,619 L 779,623 L 783,625 L 808,625 L 812,623 L 812,620 L 807,617 L 803,612 L 806,594 L 809,584 L 811,582 L 851,580 L 856,587 L 862,606 L 862,614 L 858,618 L 850,621 L 852,625 L 898,624 L 899,621 L 891,617 L 885,609 L 845,492 L 843,490 L 838,489 Z"
              fill="black"/>
        <path d="M 830,517 L 850,571 L 848,573 L 842,574 L 814,574 L 813,571 Z" fill="white"/>
        <path d="M 410,488 L 394,492 L 380,501 L 369,513 L 362,524 L 356,538 L 354,548 L 354,568 L 358,583 L 363,594 L 371,605 L 381,615 L 403,626 L 424,627 L 440,622 L 450,616 L 465,599 L 475,576 L 477,565 L 477,551 L 472,530 L 465,517 L 455,504 L 442,494 L 433,490 L 424,488 Z"
              fill="black"/>
        <path d="M 409,496 L 421,496 L 433,501 L 442,510 L 449,524 L 453,541 L 453,574 L 448,593 L 440,607 L 434,613 L 422,619 L 406,618 L 400,615 L 391,607 L 382,591 L 377,572 L 377,543 L 383,520 L 390,508 L 396,502 Z"
              fill="black"/>
        <path d="M 202,368 L 199,377 L 196,396 L 197,413 L 195,413 L 192,403 L 193,388 L 192,407 L 197,416 L 204,435 L 211,442 L 207,438 L 202,429 L 203,427 L 211,435 L 201,424 L 198,412 L 198,392 Z"
              fill="black"/>
        <path d="M 217,353 L 212,361 L 207,378 L 205,406 L 207,420 L 210,428 L 211,426 L 221,437 L 212,426 L 207,417 L 206,411 L 206,394 L 208,378 L 212,363 Z"
              fill="black"/>
        <path d="M 209,426 L 211,426 Z" fill="white"/>
        <path d="M 451,270 L 484,271 Z" fill="black"/>
        <path d="M 849,400 L 836,390 L 810,366 L 758,327 L 760,326 L 777,337 L 821,372 L 783,337 L 752,312 L 715,287 L 724,295 L 755,317 L 753,318 L 717,295 L 717,293 L 711,288 L 684,271 L 709,289 L 707,290 L 684,275 L 657,262 L 694,282 L 696,284 L 694,285 L 668,271 L 646,262 L 636,262 L 626,259 L 633,262 L 629,263 L 617,259 L 611,259 L 596,255 L 590,255 L 609,259 L 609,261 L 599,261 L 588,257 L 585,257 L 590,258 L 590,260 L 614,264 L 630,269 L 633,271 L 632,272 L 623,271 L 612,267 L 601,266 L 576,259 L 545,257 L 558,258 L 587,265 L 587,267 L 589,267 L 588,269 L 582,268 L 581,266 L 538,259 L 535,261 L 528,262 L 504,262 L 541,265 L 541,267 L 529,267 L 529,269 L 513,268 L 518,266 L 527,266 L 500,269 L 485,266 L 473,266 L 494,269 L 494,271 L 491,273 L 486,273 L 478,276 L 464,277 L 454,276 L 454,274 L 458,274 L 431,274 L 412,277 L 403,280 L 430,275 L 448,275 L 448,277 L 419,281 L 394,290 L 382,296 L 380,295 L 382,293 L 405,283 L 377,295 L 341,317 L 328,331 L 308,348 L 307,346 L 330,322 L 358,300 L 341,311 L 323,327 L 323,324 L 321,325 L 300,349 L 299,347 L 305,338 L 320,323 L 345,305 L 336,311 L 330,313 L 308,330 L 288,351 L 272,373 L 262,393 L 261,390 L 266,377 L 283,352 L 312,323 L 346,300 L 324,313 L 291,339 L 280,345 L 278,344 L 301,321 L 292,328 L 291,326 L 304,314 L 312,309 L 295,320 L 269,346 L 263,354 L 262,352 L 264,350 L 254,359 L 250,366 L 248,364 L 256,348 L 267,333 L 278,323 L 263,336 L 254,348 L 230,387 L 221,410 L 220,401 L 222,390 L 227,380 L 228,382 L 228,377 L 233,365 L 235,365 L 233,377 L 238,360 L 245,348 L 235,364 L 234,361 L 241,347 L 221,385 L 216,402 L 216,419 L 213,409 L 212,384 L 215,367 L 223,351 L 218,357 L 214,366 L 210,383 L 210,404 L 216,419 L 216,424 L 219,431 L 216,420 L 218,419 L 218,404 L 222,423 L 226,432 L 222,419 L 222,409 L 227,398 L 229,399 L 227,429 L 230,416 L 240,396 L 246,378 L 254,363 L 262,353 L 263,354 L 248,380 L 245,392 L 240,401 L 236,422 L 232,434 L 233,438 L 233,433 L 238,421 L 240,410 L 242,407 L 243,409 L 245,397 L 257,374 L 258,377 L 251,391 L 247,406 L 241,419 L 241,427 L 243,419 L 253,396 L 255,394 L 256,395 L 252,413 L 248,423 L 248,430 L 245,441 L 253,418 L 261,402 L 273,385 L 274,388 L 266,406 L 262,411 L 265,408 L 266,411 L 254,435 L 263,424 L 272,404 L 275,401 L 277,401 L 279,394 L 302,365 L 303,367 L 295,378 L 291,387 L 282,398 L 283,400 L 276,412 L 277,414 L 270,431 L 287,399 L 289,397 L 290,398 L 288,405 L 281,416 L 275,430 L 275,428 L 286,415 L 289,408 L 306,388 L 308,387 L 309,389 L 300,400 L 295,409 L 291,412 L 289,416 L 290,415 L 291,417 L 286,426 L 281,430 L 277,430 L 282,430 L 287,428 L 286,427 L 295,417 L 305,402 L 313,394 L 313,398 L 292,428 L 310,407 L 321,391 L 323,394 L 320,400 L 303,423 L 315,411 L 316,412 L 328,398 L 329,401 L 322,414 L 329,407 L 330,409 L 332,407 L 333,409 L 326,418 L 333,413 L 342,400 L 353,390 L 355,391 L 341,409 L 345,409 L 369,384 L 371,385 L 357,402 L 348,410 L 351,408 L 353,409 L 352,410 L 393,372 L 400,368 L 401,370 L 363,406 L 370,401 L 371,402 L 365,408 L 378,399 L 389,389 L 391,390 L 386,395 L 389,392 L 391,393 L 388,396 L 415,378 L 417,379 L 417,382 L 412,387 L 397,396 L 402,393 L 404,394 L 398,398 L 406,394 L 419,383 L 452,362 L 454,363 L 419,390 L 434,380 L 437,380 L 448,373 L 476,360 L 481,359 L 481,361 L 450,377 L 447,380 L 470,368 L 472,369 L 503,355 L 553,339 L 572,335 L 580,335 L 580,337 L 563,340 L 530,349 L 514,357 L 525,352 L 547,346 L 559,346 L 584,341 L 632,336 L 673,336 L 659,335 L 650,332 L 650,330 L 659,330 L 676,333 L 681,336 L 697,338 L 749,355 L 736,349 L 730,348 L 730,346 L 733,346 L 714,343 L 699,337 L 684,334 L 684,332 L 695,333 L 732,343 L 779,365 L 779,367 L 725,349 L 678,339 L 662,338 L 643,340 L 663,339 L 688,342 L 688,344 L 662,342 L 635,342 L 614,345 L 634,343 L 664,343 L 736,355 L 756,361 L 768,367 L 786,372 L 793,376 L 800,377 L 833,394 L 819,385 L 796,375 L 788,369 L 750,350 L 753,349 L 785,364 L 788,364 L 789,365 L 787,366 L 797,372 L 793,369 L 795,368 L 819,383 L 816,380 L 818,379 Z"
              fill="black"/>
        <path d="M 293,415 L 295,415 Z" fill="white"/>
        <path d="M 290,414 L 291,413 L 292,415 L 291,416 Z" fill="white"/>
        <path d="M 294,413 L 295,412 L 296,414 L 295,415 Z" fill="white"/>
        <path d="M 291,413 L 293,413 Z" fill="white"/>
        <path d="M 352,408 L 354,408 Z" fill="white"/>
        <path d="M 229,408 L 230,407 L 231,409 L 230,410 Z" fill="white"/>
        <path d="M 353,407 L 355,407 Z" fill="white"/>
        <path d="M 343,407 L 344,406 L 345,408 L 344,409 Z" fill="white"/>
        <path d="M 329,407 L 331,407 Z" fill="white"/>
        <path d="M 344,406 L 346,406 Z" fill="white"/>
        <path d="M 357,404 L 358,405 L 355,407 L 354,406 Z" fill="white"/>
        <path d="M 345,405 L 347,405 Z" fill="white"/>
        <path d="M 357,404 L 359,404 Z" fill="white"/>
        <path d="M 358,403 L 360,403 Z" fill="white"/>
        <path d="M 359,402 L 361,402 Z" fill="white"/>
        <path d="M 329,401 L 330,400 L 331,402 L 330,403 Z" fill="white"/>
        <path d="M 322,401 L 324,401 Z" fill="white"/>
        <path d="M 323,400 L 325,400 Z" fill="white"/>
        <path d="M 271,399 L 273,399 Z" fill="white"/>
        <path d="M 324,398 L 326,398 Z" fill="white"/>
        <path d="M 305,397 L 306,399 L 296,413 L 295,411 Z" fill="white"/>
        <path d="M 328,397 L 329,396 L 330,398 L 329,399 Z" fill="white"/>
        <path d="M 305,397 L 307,397 Z" fill="white"/>
        <path d="M 272,397 L 274,397 Z" fill="white"/>
        <path d="M 308,396 L 310,396 Z" fill="white"/>
        <path d="M 295,396 L 297,396 Z" fill="white"/>
        <path d="M 289,396 L 290,395 L 291,397 L 290,398 Z" fill="white"/>
        <path d="M 378,394 L 379,395 L 371,402 L 370,401 Z" fill="white"/>
        <path d="M 306,395 L 308,395 Z" fill="white"/>
        <path d="M 378,394 L 380,394 Z" fill="white"/>
        <path d="M 356,394 L 358,394 Z" fill="white"/>
        <path d="M 342,393 L 343,395 L 333,408 L 332,406 Z" fill="white"/>
        <path d="M 275,394 L 277,394 Z" fill="white"/>
        <path d="M 403,393 L 406,393 Z" fill="white"/>
        <path d="M 357,393 L 359,393 Z" fill="white"/>
        <path d="M 347,393 L 349,393 Z" fill="white"/>
        <path d="M 261,392 L 262,395 L 254,409 L 253,407 L 257,395 L 259,392 L 260,394 Z" fill="white"/>
        <path d="M 405,392 L 407,392 Z" fill="white"/>
        <path d="M 382,391 L 383,392 L 380,394 L 379,393 Z" fill="white"/>
        <path d="M 358,392 L 360,392 Z" fill="white"/>
        <path d="M 342,392 L 343,391 L 344,393 L 343,394 Z" fill="white"/>
        <path d="M 276,392 L 277,391 L 278,393 L 277,394 Z" fill="white"/>
        <path d="M 256,391 L 256,395 Z" fill="white"/>
        <path d="M 406,391 L 409,391 Z" fill="white"/>
        <path d="M 382,391 L 384,391 Z" fill="white"/>
        <path d="M 359,391 L 361,391 Z" fill="white"/>
        <path d="M 266,391 L 268,391 Z" fill="white"/>
        <path d="M 408,390 L 410,390 Z" fill="white"/>
        <path d="M 383,390 L 385,390 Z" fill="white"/>
        <path d="M 354,390 L 356,390 Z" fill="white"/>
        <path d="M 338,390 L 340,390 Z" fill="white"/>
        <path d="M 256,390 L 257,389 L 258,391 L 257,392 Z" fill="white"/>
        <path d="M 410,389 L 412,389 Z" fill="white"/>
        <path d="M 390,389 L 392,389 Z" fill="white"/>
        <path d="M 384,389 L 386,389 Z" fill="white"/>
        <path d="M 355,389 L 357,389 Z" fill="white"/>
        <path d="M 323,388 L 324,390 L 322,391 L 321,390 Z" fill="white"/>
        <path d="M 295,388 L 296,390 L 293,394 L 292,392 Z" fill="white"/>
        <path d="M 267,389 L 268,388 L 269,390 L 268,391 Z" fill="white"/>
        <path d="M 264,389 L 266,389 Z" fill="white"/>
        <path d="M 385,388 L 387,388 Z" fill="white"/>
        <path d="M 323,388 L 325,388 Z" fill="white"/>
        <path d="M 317,388 L 319,388 Z" fill="white"/>
        <path d="M 295,388 L 297,388 Z" fill="white"/>
        <path d="M 279,388 L 281,388 Z" fill="white"/>
        <path d="M 268,388 L 270,388 Z" fill="white"/>
        <path d="M 317,386 L 318,387 L 310,396 L 309,393 L 312,388 Z" fill="white"/>
        <path d="M 313,387 L 315,387 Z" fill="white"/>
        <path d="M 308,387 L 310,387 Z" fill="white"/>
        <path d="M 265,387 L 266,386 L 267,388 L 266,389 Z" fill="white"/>
        <path d="M 309,386 L 311,386 Z" fill="white"/>
        <path d="M 303,385 L 303,389 L 297,396 L 296,394 Z" fill="white"/>
        <path d="M 280,386 L 282,386 Z" fill="white"/>
        <path d="M 269,386 L 270,385 L 271,387 L 270,388 Z" fill="white"/>
        <path d="M 303,385 L 305,385 Z" fill="white"/>
        <path d="M 279,384 L 280,386 L 274,396 L 273,393 Z" fill="white"/>
        <path d="M 273,385 L 275,385 Z" fill="white"/>
        <path d="M 327,383 L 328,385 L 325,388 L 324,386 Z" fill="white"/>
        <path d="M 268,383 L 269,385 L 267,387 L 266,385 Z" fill="white"/>
        <path d="M 826,383 L 828,383 Z" fill="white"/>
        <path d="M 396,383 L 398,383 Z" fill="white"/>
        <path d="M 327,383 L 329,383 Z" fill="white"/>
        <path d="M 316,383 L 318,383 Z" fill="white"/>
        <path d="M 304,383 L 306,383 Z" fill="white"/>
        <path d="M 283,382 L 284,384 L 282,386 L 281,384 Z" fill="white"/>
        <path d="M 257,383 L 259,383 Z" fill="white"/>
        <path d="M 393,381 L 394,382 L 387,388 L 386,387 Z" fill="white"/>
        <path d="M 335,382 L 337,382 Z" fill="white"/>
        <path d="M 317,382 L 319,382 Z" fill="white"/>
        <path d="M 823,381 L 825,380 L 827,382 L 825,383 Z" fill="white"/>
        <path d="M 393,381 L 395,381 Z" fill="white"/>
        <path d="M 328,381 L 329,380 L 330,382 L 329,383 Z" fill="white"/>
        <path d="M 318,381 L 320,381 Z" fill="white"/>
        <path d="M 283,381 L 284,380 L 285,382 L 284,383 Z" fill="white"/>
        <path d="M 258,381 L 259,380 L 260,382 L 259,383 Z" fill="white"/>
        <path d="M 822,380 L 824,380 Z" fill="white"/>
        <path d="M 418,380 L 420,380 Z" fill="white"/>
        <path d="M 357,380 L 359,380 Z" fill="white"/>
        <path d="M 336,380 L 338,380 Z" fill="white"/>
        <path d="M 329,380 L 331,380 Z" fill="white"/>
        <path d="M 436,379 L 438,379 Z" fill="white"/>
        <path d="M 358,379 L 360,379 Z" fill="white"/>
        <path d="M 337,379 L 339,379 Z" fill="white"/>
        <path d="M 259,379 L 260,378 L 261,380 L 260,381 Z" fill="white"/>
        <path d="M 238,378 L 239,380 L 230,401 L 230,393 Z" fill="white"/>
        <path d="M 813,378 L 815,377 L 817,379 L 815,380 Z" fill="white"/>
        <path d="M 411,378 L 392,393 L 390,392 L 409,377 Z" fill="white"/>
        <path d="M 403,377 L 404,378 L 398,383 L 397,382 Z" fill="white"/>
        <path d="M 359,378 L 361,378 Z" fill="white"/>
        <path d="M 260,378 L 262,378 Z" fill="white"/>
        <path d="M 812,377 L 814,377 Z" fill="white"/>
        <path d="M 403,377 L 405,377 Z" fill="white"/>
        <path d="M 360,377 L 362,377 Z" fill="white"/>
        <path d="M 238,377 L 240,377 Z" fill="white"/>
        <path d="M 424,375 L 425,376 L 420,380 L 419,379 Z" fill="white"/>
        <path d="M 400,375 L 401,376 L 395,381 L 394,380 Z" fill="white"/>
        <path d="M 361,376 L 363,376 Z" fill="white"/>
        <path d="M 340,375 L 341,377 L 339,379 L 338,377 Z" fill="white"/>
        <path d="M 252,376 L 254,376 Z" fill="white"/>
        <path d="M 424,375 L 426,375 Z" fill="white"/>
        <path d="M 400,375 L 402,375 Z" fill="white"/>
        <path d="M 369,375 L 362,383 L 349,393 L 348,392 L 355,383 L 356,384 L 367,374 Z" fill="white"/>
        <path d="M 328,374 L 329,376 L 319,388 L 317,386 L 324,376 Z" fill="white"/>
        <path d="M 253,375 L 255,375 Z" fill="white"/>
        <path d="M 426,374 L 428,374 Z" fill="white"/>
        <path d="M 408,373 L 409,374 L 405,377 L 404,376 Z" fill="white"/>
        <path d="M 368,374 L 370,374 Z" fill="white"/>
        <path d="M 328,374 L 330,374 Z" fill="white"/>
        <path d="M 319,374 L 321,374 Z" fill="white"/>
        <path d="M 244,373 L 245,376 L 231,408 L 230,404 L 233,393 L 241,376 Z" fill="white"/>
        <path d="M 427,373 L 429,373 Z" fill="white"/>
        <path d="M 408,373 L 410,373 Z" fill="white"/>
        <path d="M 320,373 L 322,373 Z" fill="white"/>
        <path d="M 289,372 L 290,374 L 285,381 L 284,379 Z" fill="white"/>
        <path d="M 257,373 L 258,372 L 259,374 L 258,375 Z" fill="white"/>
        <path d="M 254,373 L 256,373 Z" fill="white"/>
        <path d="M 429,372 L 431,372 Z" fill="white"/>
        <path d="M 425,372 L 427,372 Z" fill="white"/>
        <path d="M 321,372 L 323,372 Z" fill="white"/>
        <path d="M 316,371 L 317,372 L 313,379 L 306,386 L 305,384 Z" fill="white"/>
        <path d="M 301,372 L 303,372 Z" fill="white"/>
        <path d="M 258,372 L 260,372 Z" fill="white"/>
        <path d="M 430,371 L 432,371 Z" fill="white"/>
        <path d="M 426,371 L 428,371 Z" fill="white"/>
        <path d="M 412,370 L 413,371 L 410,373 L 409,372 Z" fill="white"/>
        <path d="M 316,371 L 318,371 Z" fill="white"/>
        <path d="M 302,371 L 304,371 Z" fill="white"/>
        <path d="M 255,371 L 257,371 Z" fill="white"/>
        <path d="M 431,370 L 433,370 Z" fill="white"/>
        <path d="M 303,370 L 305,370 Z" fill="white"/>
        <path d="M 291,369 L 292,371 L 290,373 L 289,371 Z" fill="white"/>
        <path d="M 291,369 L 293,369 Z" fill="white"/>
        <path d="M 256,369 L 257,368 L 258,370 L 257,371 Z" fill="white"/>
        <path d="M 782,368 L 784,368 Z" fill="white"/>
        <path d="M 422,368 L 416,374 L 412,374 L 420,367 Z" fill="white"/>
        <path d="M 326,368 L 328,368 Z" fill="white"/>
        <path d="M 304,368 L 305,367 L 306,369 L 305,370 Z" fill="white"/>
        <path d="M 790,367 L 792,366 L 794,368 L 792,369 Z" fill="white"/>
        <path d="M 779,367 L 782,367 Z" fill="white"/>
        <path d="M 421,367 L 423,367 Z" fill="white"/>
        <path d="M 402,367 L 404,367 Z" fill="white"/>
        <path d="M 386,366 L 387,368 L 371,385 L 369,382 Z" fill="white"/>
        <path d="M 305,367 L 307,367 Z" fill="white"/>
        <path d="M 257,367 L 258,366 L 259,368 L 258,369 Z" fill="white"/>
        <path d="M 788,366 L 791,366 Z" fill="white"/>
        <path d="M 455,366 L 457,366 Z" fill="white"/>
        <path d="M 422,366 L 424,366 Z" fill="white"/>
        <path d="M 403,366 L 405,366 Z" fill="white"/>
        <path d="M 386,366 L 388,366 Z" fill="white"/>
        <path d="M 306,366 L 308,366 Z" fill="white"/>
        <path d="M 294,365 L 295,367 L 293,369 L 292,367 Z" fill="white"/>
        <path d="M 457,365 L 459,365 Z" fill="white"/>
        <path d="M 434,365 L 436,365 Z" fill="white"/>
        <path d="M 404,365 L 407,365 Z" fill="white"/>
        <path d="M 376,365 L 364,376 L 362,375 L 373,364 Z" fill="white"/>
        <path d="M 362,364 L 363,365 L 338,390 L 339,392 L 331,401 L 331,395 L 345,376 L 357,365 Z" fill="white"/>
        <path d="M 342,364 L 343,365 L 336,372 L 335,370 Z" fill="white"/>
        <path d="M 302,365 L 304,365 Z" fill="white"/>
        <path d="M 298,365 L 300,365 Z" fill="white"/>
        <path d="M 258,365 L 259,364 L 260,366 L 259,367 Z" fill="white"/>
        <path d="M 459,364 L 462,364 Z" fill="white"/>
        <path d="M 406,364 L 408,364 Z" fill="white"/>
        <path d="M 376,364 L 378,364 Z" fill="white"/>
        <path d="M 342,364 L 344,364 Z" fill="white"/>
        <path d="M 327,363 L 328,365 L 325,369 L 326,370 L 323,372 L 322,369 Z" fill="white"/>
        <path d="M 291,364 L 293,364 Z" fill="white"/>
        <path d="M 289,363 L 292,366 L 284,375 L 284,378 L 280,385 L 279,382 L 282,377 L 282,373 Z" fill="white"/>
        <path d="M 789,363 L 792,363 Z" fill="white"/>
        <path d="M 480,363 L 482,363 Z" fill="white"/>
        <path d="M 461,363 L 463,363 Z" fill="white"/>
        <path d="M 427,362 L 428,363 L 424,366 L 423,365 Z" fill="white"/>
        <path d="M 332,363 L 334,363 Z" fill="white"/>
        <path d="M 327,363 L 329,363 Z" fill="white"/>
        <path d="M 292,363 L 294,363 Z" fill="white"/>
        <path d="M 787,362 L 790,362 Z" fill="white"/>
        <path d="M 481,362 L 484,362 Z" fill="white"/>
        <path d="M 463,362 L 466,362 Z" fill="white"/>
        <path d="M 427,362 L 429,362 Z" fill="white"/>
        <path d="M 340,362 L 342,362 Z" fill="white"/>
        <path d="M 333,362 L 335,362 Z" fill="white"/>
        <path d="M 328,362 L 330,362 Z" fill="white"/>
        <path d="M 794,361 L 796,360 L 803,365 L 806,365 L 823,379 L 819,379 L 802,368 Z" fill="white"/>
        <path d="M 785,361 L 788,361 Z" fill="white"/>
        <path d="M 456,360 L 457,361 L 454,363 L 453,362 Z" fill="white"/>
        <path d="M 450,361 L 452,361 Z" fill="white"/>
        <path d="M 432,361 L 434,361 Z" fill="white"/>
        <path d="M 380,360 L 381,361 L 378,364 L 377,362 Z" fill="white"/>
        <path d="M 341,361 L 343,361 Z" fill="white"/>
        <path d="M 290,361 L 292,361 Z" fill="white"/>
        <path d="M 792,360 L 794,360 Z" fill="white"/>
        <path d="M 456,360 L 459,360 Z" fill="white"/>
        <path d="M 451,360 L 454,360 Z" fill="white"/>
        <path d="M 446,360 L 439,365 L 435,364 L 440,360 Z" fill="white"/>
        <path d="M 431,359 L 432,360 L 429,362 L 428,361 Z" fill="white"/>
        <path d="M 423,360 L 403,375 L 401,374 L 415,362 L 421,359 Z" fill="white"/>
        <path d="M 380,360 L 382,360 Z" fill="white"/>
        <path d="M 342,360 L 344,360 Z" fill="white"/>
        <path d="M 336,360 L 338,360 Z" fill="white"/>
        <path d="M 311,360 L 313,360 Z" fill="white"/>
        <path d="M 262,359 L 263,361 L 260,365 L 259,363 Z" fill="white"/>
        <path d="M 791,359 L 793,359 Z" fill="white"/>
        <path d="M 458,359 L 461,359 Z" fill="white"/>
        <path d="M 453,359 L 455,359 Z" fill="white"/>
        <path d="M 445,359 L 447,359 Z" fill="white"/>
        <path d="M 431,359 L 433,359 Z" fill="white"/>
        <path d="M 354,359 L 356,359 Z" fill="white"/>
        <path d="M 337,359 L 339,359 Z" fill="white"/>
        <path d="M 312,359 L 314,359 Z" fill="white"/>
        <path d="M 296,358 L 297,360 L 294,363 L 293,361 Z" fill="white"/>
        <path d="M 291,359 L 292,358 L 293,360 L 292,361 Z" fill="white"/>
        <path d="M 780,358 L 782,357 L 786,360 L 784,361 Z" fill="white"/>
        <path d="M 454,358 L 457,358 Z" fill="white"/>
        <path d="M 414,358 L 416,358 Z" fill="white"/>
        <path d="M 378,358 L 380,358 Z" fill="white"/>
        <path d="M 355,358 L 357,358 Z" fill="white"/>
        <path d="M 326,358 L 328,358 Z" fill="white"/>
        <path d="M 313,358 L 315,358 Z" fill="white"/>
        <path d="M 296,358 L 298,358 Z" fill="white"/>
        <path d="M 292,358 L 294,358 Z" fill="white"/>
        <path d="M 286,357 L 286,361 L 269,384 L 268,381 Z" fill="white"/>
        <path d="M 456,357 L 458,357 Z" fill="white"/>
        <path d="M 415,357 L 417,357 Z" fill="white"/>
        <path d="M 380,357 L 382,357 Z" fill="white"/>
        <path d="M 356,357 L 358,357 Z" fill="white"/>
        <path d="M 327,357 L 329,357 Z" fill="white"/>
        <path d="M 314,357 L 316,357 Z" fill="white"/>
        <path d="M 293,357 L 295,357 Z" fill="white"/>
        <path d="M 286,357 L 288,357 Z" fill="white"/>
        <path d="M 264,356 L 265,358 L 263,360 L 262,358 Z" fill="white"/>
        <path d="M 791,356 L 793,356 Z" fill="white"/>
        <path d="M 458,356 L 460,356 Z" fill="white"/>
        <path d="M 446,356 L 448,356 Z" fill="white"/>
        <path d="M 416,356 L 418,356 Z" fill="white"/>
        <path d="M 398,356 L 401,356 Z" fill="white"/>
        <path d="M 381,356 L 383,356 Z" fill="white"/>
        <path d="M 373,356 L 375,356 Z" fill="white"/>
        <path d="M 357,356 L 359,356 Z" fill="white"/>
        <path d="M 287,356 L 289,356 Z" fill="white"/>
        <path d="M 482,355 L 470,361 L 465,361 L 475,355 Z" fill="white"/>
        <path d="M 468,355 L 462,359 L 460,358 L 466,354 Z" fill="white"/>
        <path d="M 460,355 L 462,355 Z" fill="white"/>
        <path d="M 450,355 L 453,355 Z" fill="white"/>
        <path d="M 448,355 L 450,355 Z" fill="white"/>
        <path d="M 443,355 L 437,360 L 433,360 L 439,355 Z" fill="white"/>
        <path d="M 426,355 L 428,355 Z" fill="white"/>
        <path d="M 417,355 L 419,355 Z" fill="white"/>
        <path d="M 391,355 L 393,355 Z" fill="white"/>
        <path d="M 374,355 L 376,355 Z" fill="white"/>
        <path d="M 299,354 L 300,356 L 298,358 L 297,356 Z" fill="white"/>
        <path d="M 294,355 L 296,355 Z" fill="white"/>
        <path d="M 288,355 L 290,355 Z" fill="white"/>
        <path d="M 468,354 L 470,354 Z" fill="white"/>
        <path d="M 449,354 L 451,354 Z" fill="white"/>
        <path d="M 442,354 L 444,354 Z" fill="white"/>
        <path d="M 427,354 L 430,354 Z" fill="white"/>
        <path d="M 418,354 L 421,354 Z" fill="white"/>
        <path d="M 400,355 L 401,353 L 405,354 L 402,356 Z" fill="white"/>
        <path d="M 392,354 L 394,354 Z" fill="white"/>
        <path d="M 385,354 L 387,354 Z" fill="white"/>
        <path d="M 299,354 L 301,354 Z" fill="white"/>
        <path d="M 295,354 L 297,354 Z" fill="white"/>
        <path d="M 289,354 L 291,354 Z" fill="white"/>
        <path d="M 266,353 L 267,355 L 265,357 L 264,355 Z" fill="white"/>
        <path d="M 771,353 L 773,352 L 781,357 L 779,358 Z" fill="white"/>
        <path d="M 726,353 L 729,353 Z" fill="white"/>
        <path d="M 478,353 L 480,353 Z" fill="white"/>
        <path d="M 469,353 L 472,353 Z" fill="white"/>
        <path d="M 455,352 L 456,353 L 453,355 L 452,354 Z" fill="white"/>
        <path d="M 443,353 L 445,353 Z" fill="white"/>
        <path d="M 429,353 L 432,353 Z" fill="white"/>
        <path d="M 420,353 L 422,353 Z" fill="white"/>
        <path d="M 393,353 L 395,353 Z" fill="white"/>
        <path d="M 386,353 L 388,353 Z" fill="white"/>
        <path d="M 333,353 L 335,353 Z" fill="white"/>
        <path d="M 300,353 L 302,353 Z" fill="white"/>
        <path d="M 290,353 L 292,353 Z" fill="white"/>
        <path d="M 769,352 L 772,352 Z" fill="white"/>
        <path d="M 471,352 L 474,352 Z" fill="white"/>
        <path d="M 455,352 L 457,352 Z" fill="white"/>
        <path d="M 431,352 L 433,352 Z" fill="white"/>
        <path d="M 421,352 L 424,352 Z" fill="white"/>
        <path d="M 411,352 L 413,352 Z" fill="white"/>
        <path d="M 301,352 L 303,352 Z" fill="white"/>
        <path d="M 296,352 L 298,352 Z" fill="white"/>
        <path d="M 291,352 L 293,352 Z" fill="white"/>
        <path d="M 473,351 L 476,351 Z" fill="white"/>
        <path d="M 452,351 L 454,351 Z" fill="white"/>
        <path d="M 413,351 L 415,351 Z" fill="white"/>
        <path d="M 354,350 L 354,354 L 344,364 L 343,362 Z" fill="white"/>
        <path d="M 297,351 L 299,351 Z" fill="white"/>
        <path d="M 292,351 L 294,351 Z" fill="white"/>
        <path d="M 268,350 L 269,352 L 267,354 L 266,352 Z" fill="white"/>
        <path d="M 513,350 L 486,362 L 483,361 L 510,349 Z" fill="white"/>
        <path d="M 475,350 L 478,350 Z" fill="white"/>
        <path d="M 453,350 L 456,350 Z" fill="white"/>
        <path d="M 414,350 L 416,350 Z" fill="white"/>
        <path d="M 354,350 L 356,350 Z" fill="white"/>
        <path d="M 333,350 L 335,350 Z" fill="white"/>
        <path d="M 293,350 L 295,350 Z" fill="white"/>
        <path d="M 268,350 L 270,350 Z" fill="white"/>
        <path d="M 748,349 L 750,349 Z" fill="white"/>
        <path d="M 513,349 L 515,349 Z" fill="white"/>
        <path d="M 477,349 L 479,349 Z" fill="white"/>
        <path d="M 415,349 L 418,349 Z" fill="white"/>
        <path d="M 407,349 L 409,349 Z" fill="white"/>
        <path d="M 378,349 L 380,349 Z" fill="white"/>
        <path d="M 355,349 L 357,349 Z" fill="white"/>
        <path d="M 505,348 L 507,348 Z" fill="white"/>
        <path d="M 479,348 L 481,348 Z" fill="white"/>
        <path d="M 433,348 L 435,348 Z" fill="white"/>
        <path d="M 428,347 L 429,348 L 424,352 L 423,351 Z" fill="white"/>
        <path d="M 379,348 L 381,348 Z" fill="white"/>
        <path d="M 336,348 L 338,348 Z" fill="white"/>
        <path d="M 294,348 L 295,347 L 296,349 L 295,350 Z" fill="white"/>
        <path d="M 269,348 L 270,347 L 271,349 L 270,350 Z" fill="white"/>
        <path d="M 755,347 L 758,347 Z" fill="white"/>
        <path d="M 434,347 L 437,347 Z" fill="white"/>
        <path d="M 411,346 L 412,347 L 409,349 L 408,348 Z" fill="white"/>
        <path d="M 337,347 L 339,347 Z" fill="white"/>
        <path d="M 295,347 L 297,347 Z" fill="white"/>
        <path d="M 270,347 L 272,347 Z" fill="white"/>
        <path d="M 753,346 L 756,346 Z" fill="white"/>
        <path d="M 686,346 L 702,346 L 727,352 L 722,353 Z" fill="white"/>
        <path d="M 523,346 L 526,346 Z" fill="white"/>
        <path d="M 436,346 L 438,346 Z" fill="white"/>
        <path d="M 431,345 L 432,346 L 429,348 L 428,347 Z" fill="white"/>
        <path d="M 338,346 L 340,346 Z" fill="white"/>
        <path d="M 296,346 L 298,346 Z" fill="white"/>
        <path d="M 271,346 L 273,346 Z" fill="white"/>
        <path d="M 680,345 L 684,345 Z" fill="white"/>
        <path d="M 525,345 L 529,345 Z" fill="white"/>
        <path d="M 437,345 L 440,345 Z" fill="white"/>
        <path d="M 431,345 L 433,345 Z" fill="white"/>
        <path d="M 374,345 L 360,356 L 358,355 L 372,344 Z" fill="white"/>
        <path d="M 365,345 L 367,345 Z" fill="white"/>
        <path d="M 277,345 L 279,345 Z" fill="white"/>
        <path d="M 272,345 L 274,345 Z" fill="white"/>
        <path d="M 689,344 L 693,344 Z" fill="white"/>
        <path d="M 439,344 L 441,344 Z" fill="white"/>
        <path d="M 411,346 L 415,343 L 418,344 L 413,347 Z" fill="white"/>
        <path d="M 366,344 L 368,344 Z" fill="white"/>
        <path d="M 352,344 L 332,362 L 331,361 L 350,343 Z" fill="white"/>
        <path d="M 318,343 L 319,345 L 300,365 L 299,363 Z" fill="white"/>
        <path d="M 772,343 L 776,343 L 792,355 L 790,356 Z" fill="white"/>
        <path d="M 746,343 L 749,342 L 754,345 L 751,346 Z" fill="white"/>
        <path d="M 488,343 L 490,343 Z" fill="white"/>
        <path d="M 434,343 L 436,343 Z" fill="white"/>
        <path d="M 417,343 L 419,343 Z" fill="white"/>
        <path d="M 342,343 L 344,343 Z" fill="white"/>
        <path d="M 336,342 L 337,343 L 330,350 L 329,348 Z" fill="white"/>
        <path d="M 771,342 L 773,342 Z" fill="white"/>
        <path d="M 473,342 L 461,349 L 455,349 L 470,341 Z" fill="white"/>
        <path d="M 436,342 L 438,342 Z" fill="white"/>
        <path d="M 390,342 L 384,347 L 380,347 L 388,341 Z" fill="white"/>
        <path d="M 379,342 L 375,345 L 373,344 L 377,341 Z" fill="white"/>
        <path d="M 369,342 L 371,342 Z" fill="white"/>
        <path d="M 784,341 L 786,341 Z" fill="white"/>
        <path d="M 769,341 L 771,341 Z" fill="white"/>
        <path d="M 765,341 L 767,341 Z" fill="white"/>
        <path d="M 743,341 L 745,340 L 747,342 L 745,343 Z" fill="white"/>
        <path d="M 736,341 L 739,341 Z" fill="white"/>
        <path d="M 472,341 L 474,341 Z" fill="white"/>
        <path d="M 466,341 L 468,341 Z" fill="white"/>
        <path d="M 406,341 L 408,341 Z" fill="white"/>
        <path d="M 378,341 L 380,341 Z" fill="white"/>
        <path d="M 370,341 L 372,341 Z" fill="white"/>
        <path d="M 291,341 L 281,351 L 263,377 L 262,374 L 272,355 L 280,346 L 288,340 Z" fill="white"/>
        <path d="M 782,340 L 784,340 Z" fill="white"/>
        <path d="M 763,340 L 765,340 Z" fill="white"/>
        <path d="M 741,340 L 743,340 Z" fill="white"/>
        <path d="M 494,340 L 496,340 Z" fill="white"/>
        <path d="M 467,340 L 470,340 Z" fill="white"/>
        <path d="M 407,340 L 409,340 Z" fill="white"/>
        <path d="M 392,339 L 393,340 L 390,342 L 389,341 Z" fill="white"/>
        <path d="M 379,340 L 381,340 Z" fill="white"/>
        <path d="M 781,339 L 783,339 Z" fill="white"/>
        <path d="M 545,339 L 531,345 L 528,344 L 542,338 Z" fill="white"/>
        <path d="M 515,339 L 492,350 L 483,353 L 479,352 L 511,338 Z" fill="white"/>
        <path d="M 495,339 L 498,339 Z" fill="white"/>
        <path d="M 486,339 L 488,339 Z" fill="white"/>
        <path d="M 469,339 L 472,339 Z" fill="white"/>
        <path d="M 392,339 L 394,339 Z" fill="white"/>
        <path d="M 374,339 L 377,339 Z" fill="white"/>
        <path d="M 751,338 L 753,337 L 771,346 L 782,354 L 780,355 Z" fill="white"/>
        <path d="M 544,338 L 547,338 Z" fill="white"/>
        <path d="M 533,338 L 512,347 L 506,347 L 517,341 L 529,337 Z" fill="white"/>
        <path d="M 497,338 L 500,338 Z" fill="white"/>
        <path d="M 488,338 L 490,338 Z" fill="white"/>
        <path d="M 410,338 L 412,338 Z" fill="white"/>
        <path d="M 376,338 L 378,338 Z" fill="white"/>
        <path d="M 740,337 L 743,337 Z" fill="white"/>
        <path d="M 533,337 L 535,337 Z" fill="white"/>
        <path d="M 509,337 L 511,337 Z" fill="white"/>
        <path d="M 489,337 L 492,337 Z" fill="white"/>
        <path d="M 422,337 L 424,337 Z" fill="white"/>
        <path d="M 411,337 L 414,337 Z" fill="white"/>
        <path d="M 777,336 L 779,335 L 782,338 L 780,339 Z" fill="white"/>
        <path d="M 748,336 L 750,335 L 752,337 L 750,338 Z" fill="white"/>
        <path d="M 736,336 L 739,336 Z" fill="white"/>
        <path d="M 581,336 L 587,336 Z" fill="white"/>
        <path d="M 536,336 L 540,336 Z" fill="white"/>
        <path d="M 491,336 L 493,336 Z" fill="white"/>
        <path d="M 452,336 L 444,342 L 440,342 L 444,338 L 450,335 Z" fill="white"/>
        <path d="M 427,336 L 429,336 Z" fill="white"/>
        <path d="M 413,336 L 415,336 Z" fill="white"/>
        <path d="M 746,335 L 749,335 Z" fill="white"/>
        <path d="M 618,336 L 582,340 L 567,344 L 562,343 L 600,334 Z" fill="white"/>
        <path d="M 515,335 L 519,335 Z" fill="white"/>
        <path d="M 428,335 L 431,335 Z" fill="white"/>
        <path d="M 426,334 L 427,335 L 424,337 L 423,336 Z" fill="white"/>
        <path d="M 405,335 L 399,341 L 378,355 L 375,354 L 401,335 Z" fill="white"/>
        <path d="M 368,335 L 370,335 Z" fill="white"/>
        <path d="M 363,335 L 365,335 Z" fill="white"/>
        <path d="M 744,334 L 747,334 Z" fill="white"/>
        <path d="M 569,334 L 573,334 Z" fill="white"/>
        <path d="M 516,334 L 515,337 L 510,336 L 514,333 Z" fill="white"/>
        <path d="M 369,334 L 371,334 Z" fill="white"/>
        <path d="M 364,334 L 366,334 Z" fill="white"/>
        <path d="M 579,334 L 584,332 L 593,333 L 586,335 Z" fill="white"/>
        <path d="M 518,334 L 521,332 L 525,333 L 522,335 Z" fill="white"/>
        <path d="M 515,333 L 518,333 Z" fill="white"/>
        <path d="M 468,333 L 470,333 Z" fill="white"/>
        <path d="M 429,332 L 430,333 L 427,335 L 426,334 Z" fill="white"/>
        <path d="M 365,333 L 367,333 Z" fill="white"/>
        <path d="M 363,332 L 364,333 L 359,339 L 355,341 L 354,339 Z" fill="white"/>
        <path d="M 678,332 L 683,332 Z" fill="white"/>
        <path d="M 513,332 L 502,338 L 499,337 L 510,331 Z" fill="white"/>
        <path d="M 366,332 L 368,332 Z" fill="white"/>
        <path d="M 363,332 L 365,332 Z" fill="white"/>
        <path d="M 600,332 L 606,330 L 641,330 L 655,334 L 650,336 L 629,336 Z" fill="white"/>
        <path d="M 512,331 L 514,331 Z" fill="white"/>
        <path d="M 469,332 L 472,330 L 475,331 L 472,333 Z" fill="white"/>
        <path d="M 411,331 L 413,331 Z" fill="white"/>
        <path d="M 364,331 L 367,331 Z" fill="white"/>
        <path d="M 474,330 L 476,330 Z" fill="white"/>
        <path d="M 367,331 L 368,329 L 370,330 L 368,332 Z" fill="white"/>
        <path d="M 353,330 L 355,330 Z" fill="white"/>
        <path d="M 734,329 L 737,328 L 745,333 L 742,334 Z" fill="white"/>
        <path d="M 569,329 L 550,334 L 542,333 L 555,329 Z" fill="white"/>
        <path d="M 494,329 L 473,339 L 471,338 L 485,330 L 491,328 Z" fill="white"/>
        <path d="M 369,329 L 371,329 Z" fill="white"/>
        <path d="M 288,329 L 290,329 Z" fill="white"/>
        <path d="M 741,328 L 745,327 L 758,334 L 764,339 L 762,340 Z" fill="white"/>
        <path d="M 732,328 L 735,328 Z" fill="white"/>
        <path d="M 721,328 L 724,328 Z" fill="white"/>
        <path d="M 671,328 L 674,328 Z" fill="white"/>
        <path d="M 568,328 L 572,328 Z" fill="white"/>
        <path d="M 543,328 L 531,332 L 523,331 L 535,327 Z" fill="white"/>
        <path d="M 392,328 L 379,338 L 377,337 L 390,327 Z" fill="white"/>
        <path d="M 354,328 L 338,343 L 336,342 L 353,327 Z" fill="white"/>
        <path d="M 320,328 L 322,328 Z" fill="white"/>
        <path d="M 289,328 L 292,328 Z" fill="white"/>
        <path d="M 687,327 L 695,326 L 708,332 L 700,332 L 689,329 Z" fill="white"/>
        <path d="M 681,327 L 683,327 Z" fill="white"/>
        <path d="M 571,327 L 577,327 Z" fill="white"/>
        <path d="M 524,327 L 527,327 Z" fill="white"/>
        <path d="M 444,327 L 432,335 L 430,334 L 434,330 L 442,326 Z" fill="white"/>
        <path d="M 391,327 L 394,327 Z" fill="white"/>
        <path d="M 321,327 L 323,327 Z" fill="white"/>
        <path d="M 757,326 L 759,326 Z" fill="white"/>
        <path d="M 715,326 L 719,325 L 722,327 L 718,328 Z" fill="white"/>
        <path d="M 689,326 L 693,326 Z" fill="white"/>
        <path d="M 675,326 L 680,326 Z" fill="white"/>
        <path d="M 444,326 L 446,326 Z" fill="white"/>
        <path d="M 393,326 L 395,326 Z" fill="white"/>
        <path d="M 755,325 L 757,325 Z" fill="white"/>
        <path d="M 712,325 L 716,325 Z" fill="white"/>
        <path d="M 697,325 L 700,324 L 712,328 L 737,340 L 734,341 L 728,339 L 715,332 Z" fill="white"/>
        <path d="M 644,325 L 656,324 L 669,327 L 662,328 Z" fill="white"/>
        <path d="M 626,325 L 643,325 Z" fill="white"/>
        <path d="M 526,326 L 530,324 L 536,325 L 531,327 Z" fill="white"/>
        <path d="M 474,325 L 455,337 L 451,335 L 461,331 L 469,325 Z" fill="white"/>
        <path d="M 412,325 L 407,329 L 395,335 L 394,334 L 404,325 Z" fill="white"/>
        <path d="M 753,324 L 755,324 Z" fill="white"/>
        <path d="M 710,324 L 713,324 Z" fill="white"/>
        <path d="M 683,324 L 687,324 Z" fill="white"/>
        <path d="M 596,325 L 603,323 L 619,324 L 606,326 Z" fill="white"/>
        <path d="M 578,324 L 575,326 L 567,327 L 559,326 L 570,323 Z" fill="white"/>
        <path d="M 473,324 L 476,324 Z" fill="white"/>
        <path d="M 447,324 L 449,324 Z" fill="white"/>
        <path d="M 371,324 L 373,324 Z" fill="white"/>
        <path d="M 707,323 L 710,323 Z" fill="white"/>
        <path d="M 681,323 L 683,323 Z" fill="white"/>
        <path d="M 663,323 L 671,322 L 676,325 L 673,326 Z" fill="white"/>
        <path d="M 742,322 L 745,321 L 757,327 L 763,332 L 761,333 Z" fill="white"/>
        <path d="M 705,322 L 708,322 Z" fill="white"/>
        <path d="M 604,322 L 595,324 L 581,323 L 594,321 Z" fill="white"/>
        <path d="M 507,322 L 510,322 Z" fill="white"/>
        <path d="M 503,322 L 505,322 Z" fill="white"/>
        <path d="M 410,322 L 412,322 Z" fill="white"/>
        <path d="M 709,321 L 712,321 Z" fill="white"/>
        <path d="M 510,321 L 512,321 Z" fill="white"/>
        <path d="M 367,321 L 356,330 L 354,329 L 363,321 Z" fill="white"/>
        <path d="M 354,321 L 356,321 Z" fill="white"/>
        <path d="M 707,320 L 710,320 Z" fill="white"/>
        <path d="M 612,321 L 635,319 L 647,322 L 644,324 L 622,323 Z" fill="white"/>
        <path d="M 556,320 L 560,320 Z" fill="white"/>
        <path d="M 507,320 L 511,320 Z" fill="white"/>
        <path d="M 390,320 L 379,327 L 372,334 L 370,333 L 376,326 L 383,321 L 388,319 Z" fill="white"/>
        <path d="M 366,320 L 369,320 Z" fill="white"/>
        <path d="M 355,320 L 357,320 Z" fill="white"/>
        <path d="M 750,319 L 752,318 L 760,322 L 778,335 L 776,336 Z" fill="white"/>
        <path d="M 642,319 L 649,318 L 663,321 L 654,322 Z" fill="white"/>
        <path d="M 572,321 L 590,318 L 609,319 L 604,321 L 588,321 L 579,323 Z" fill="white"/>
        <path d="M 564,319 L 569,319 Z" fill="white"/>
        <path d="M 470,319 L 472,319 Z" fill="white"/>
        <path d="M 368,319 L 371,319 Z" fill="white"/>
        <path d="M 754,318 L 756,318 Z" fill="white"/>
        <path d="M 718,318 L 720,318 Z" fill="white"/>
        <path d="M 695,318 L 698,317 L 706,321 L 703,322 Z" fill="white"/>
        <path d="M 443,318 L 445,318 Z" fill="white"/>
        <path d="M 370,318 L 372,318 Z" fill="white"/>
        <path d="M 717,317 L 719,317 Z" fill="white"/>
        <path d="M 699,317 L 703,316 L 708,319 L 705,320 Z" fill="white"/>
        <path d="M 536,317 L 539,317 Z" fill="white"/>
        <path d="M 531,317 L 523,321 L 521,320 L 528,316 Z" fill="white"/>
        <path d="M 521,317 L 515,320 L 510,319 L 517,316 Z" fill="white"/>
        <path d="M 425,317 L 427,317 Z" fill="white"/>
        <path d="M 346,317 L 335,327 L 333,326 L 344,316 Z" fill="white"/>
        <path d="M 720,316 L 723,315 L 739,324 L 736,326 Z" fill="white"/>
        <path d="M 715,316 L 718,316 Z" fill="white"/>
        <path d="M 349,315 L 350,316 L 347,318 L 346,317 Z" fill="white"/>
        <path d="M 714,315 L 716,315 Z" fill="white"/>
        <path d="M 554,316 L 559,314 L 563,315 L 559,317 Z" fill="white"/>
        <path d="M 425,315 L 420,320 L 413,323 L 412,322 L 414,319 L 421,315 Z" fill="white"/>
        <path d="M 675,314 L 677,314 Z" fill="white"/>
        <path d="M 621,314 L 636,313 L 643,314 L 646,316 L 632,317 Z" fill="white"/>
        <path d="M 606,314 L 609,314 Z" fill="white"/>
        <path d="M 465,314 L 444,324 L 442,323 L 447,319 L 458,314 Z" fill="white"/>
        <path d="M 424,314 L 426,314 Z" fill="white"/>
        <path d="M 414,314 L 416,314 Z" fill="white"/>
        <path d="M 407,314 L 395,320 L 391,318 L 404,313 Z" fill="white"/>
        <path d="M 361,314 L 350,322 L 343,330 L 333,337 L 321,349 L 320,348 L 325,340 L 342,324 L 357,314 Z"
              fill="white"/>
        <path d="M 687,313 L 692,312 L 700,316 L 696,317 Z" fill="white"/>
        <path d="M 681,313 L 685,313 Z" fill="white"/>
        <path d="M 508,313 L 510,313 Z" fill="white"/>
        <path d="M 464,313 L 467,313 Z" fill="white"/>
        <path d="M 406,313 L 409,313 Z" fill="white"/>
        <path d="M 380,313 L 373,318 L 371,317 L 378,312 Z" fill="white"/>
        <path d="M 735,312 L 737,311 L 739,313 L 737,314 Z" fill="white"/>
        <path d="M 556,312 L 554,314 L 542,317 L 538,316 L 546,312 Z" fill="white"/>
        <path d="M 510,312 L 514,312 Z" fill="white"/>
        <path d="M 466,312 L 470,312 Z" fill="white"/>
        <path d="M 457,312 L 446,318 L 444,317 L 454,311 Z" fill="white"/>
        <path d="M 415,313 L 418,311 L 420,312 L 418,314 Z" fill="white"/>
        <path d="M 408,312 L 410,312 Z" fill="white"/>
        <path d="M 379,312 L 382,312 Z" fill="white"/>
        <path d="M 513,311 L 517,311 Z" fill="white"/>
        <path d="M 435,311 L 428,317 L 426,316 L 431,311 Z" fill="white"/>
        <path d="M 419,311 L 422,311 Z" fill="white"/>
        <path d="M 721,310 L 724,309 L 737,316 L 750,320 L 754,323 L 752,324 L 743,320 L 741,322 Z" fill="white"/>
        <path d="M 574,311 L 580,309 L 588,309 L 590,311 L 577,313 Z" fill="white"/>
        <path d="M 517,310 L 519,310 Z" fill="white"/>
        <path d="M 439,310 L 441,310 Z" fill="white"/>
        <path d="M 434,310 L 436,310 Z" fill="white"/>
        <path d="M 421,310 L 424,310 Z" fill="white"/>
        <path d="M 384,309 L 385,310 L 382,312 L 381,311 Z" fill="white"/>
        <path d="M 719,309 L 722,309 Z" fill="white"/>
        <path d="M 440,309 L 443,309 Z" fill="white"/>
        <path d="M 384,309 L 386,309 Z" fill="white"/>
        <path d="M 718,308 L 720,308 Z" fill="white"/>
        <path d="M 690,308 L 695,307 L 704,311 L 701,312 Z" fill="white"/>
        <path d="M 663,308 L 669,307 L 677,309 L 682,312 L 678,313 Z" fill="white"/>
        <path d="M 555,308 L 560,308 Z" fill="white"/>
        <path d="M 467,308 L 459,312 L 456,311 L 464,307 Z" fill="white"/>
        <path d="M 442,308 L 444,308 Z" fill="white"/>
        <path d="M 427,308 L 429,308 Z" fill="white"/>
        <path d="M 687,307 L 691,307 Z" fill="white"/>
        <path d="M 641,307 L 645,306 L 662,311 L 654,312 Z" fill="white"/>
        <path d="M 605,308 L 607,306 L 614,306 L 620,308 Z" fill="white"/>
        <path d="M 428,307 L 431,307 Z" fill="white"/>
        <path d="M 586,306 L 590,306 Z" fill="white"/>
        <path d="M 430,306 L 433,306 Z" fill="white"/>
        <path d="M 598,305 L 600,305 Z" fill="white"/>
        <path d="M 592,305 L 597,305 Z" fill="white"/>
        <path d="M 516,305 L 520,305 Z" fill="white"/>
        <path d="M 507,305 L 489,314 L 474,319 L 471,318 L 494,307 L 504,304 Z" fill="white"/>
        <path d="M 445,305 L 447,305 Z" fill="white"/>
        <path d="M 402,305 L 396,311 L 376,323 L 372,323 L 394,307 L 400,304 Z" fill="white"/>
        <path d="M 632,304 L 636,304 Z" fill="white"/>
        <path d="M 618,304 L 622,303 L 628,305 L 629,307 L 628,308 L 620,306 Z" fill="white"/>
        <path d="M 586,304 L 578,307 L 559,307 L 568,304 Z" fill="white"/>
        <path d="M 519,304 L 522,304 Z" fill="white"/>
        <path d="M 473,306 L 479,303 L 485,304 L 477,307 Z" fill="white"/>
        <path d="M 446,304 L 449,304 Z" fill="white"/>
        <path d="M 401,304 L 403,304 Z" fill="white"/>
        <path d="M 389,304 L 358,320 L 356,319 L 363,314 L 360,313 L 364,310 L 381,303 Z" fill="white"/>
        <path d="M 711,303 L 714,303 Z" fill="white"/>
        <path d="M 648,303 L 654,302 L 660,304 L 652,305 Z" fill="white"/>
        <path d="M 484,303 L 487,303 Z" fill="white"/>
        <path d="M 465,303 L 467,303 Z" fill="white"/>
        <path d="M 448,303 L 451,303 Z" fill="white"/>
        <path d="M 402,303 L 404,303 Z" fill="white"/>
        <path d="M 709,302 L 712,302 Z" fill="white"/>
        <path d="M 455,302 L 457,302 Z" fill="white"/>
        <path d="M 450,302 L 453,302 Z" fill="white"/>
        <path d="M 429,302 L 412,312 L 410,312 L 409,310 L 400,314 L 397,313 L 407,307 L 421,302 Z" fill="white"/>
        <path d="M 382,302 L 385,302 Z" fill="white"/>
        <path d="M 707,301 L 710,301 Z" fill="white"/>
        <path d="M 556,301 L 560,301 Z" fill="white"/>
        <path d="M 452,301 L 454,301 Z" fill="white"/>
        <path d="M 428,301 L 431,301 Z" fill="white"/>
        <path d="M 403,302 L 405,300 L 408,301 L 405,303 Z" fill="white"/>
        <path d="M 705,300 L 708,300 Z" fill="white"/>
        <path d="M 694,300 L 696,299 L 714,308 L 712,309 L 709,307 L 705,307 Z" fill="white"/>
        <path d="M 561,300 L 565,300 Z" fill="white"/>
        <path d="M 433,300 L 436,300 Z" fill="white"/>
        <path d="M 421,300 L 424,300 Z" fill="white"/>
        <path d="M 407,300 L 409,300 Z" fill="white"/>
        <path d="M 702,299 L 706,299 Z" fill="white"/>
        <path d="M 693,299 L 695,299 Z" fill="white"/>
        <path d="M 572,299 L 576,299 Z" fill="white"/>
        <path d="M 549,299 L 537,302 L 533,301 L 525,304 L 522,303 L 528,300 L 538,298 Z" fill="white"/>
        <path d="M 435,299 L 438,299 Z" fill="white"/>
        <path d="M 409,299 L 411,299 Z" fill="white"/>
        <path d="M 548,298 L 554,298 Z" fill="white"/>
        <path d="M 564,297 L 570,297 Z" fill="white"/>
        <path d="M 509,297 L 505,300 L 497,302 L 493,301 L 503,296 Z" fill="white"/>
        <path d="M 376,297 L 379,297 Z" fill="white"/>
        <path d="M 665,297 L 669,295 L 674,298 L 671,299 Z" fill="white"/>
        <path d="M 653,296 L 657,295 L 660,297 L 657,298 Z" fill="white"/>
        <path d="M 585,296 L 599,296 Z" fill="white"/>
        <path d="M 378,296 L 381,296 Z" fill="white"/>
        <path d="M 673,295 L 681,295 L 692,301 L 688,302 L 677,298 Z" fill="white"/>
        <path d="M 666,295 L 668,295 Z" fill="white"/>
        <path d="M 632,295 L 638,295 Z" fill="white"/>
        <path d="M 610,295 L 616,295 Z" fill="white"/>
        <path d="M 571,295 L 575,295 Z" fill="white"/>
        <path d="M 443,295 L 427,300 L 424,299 L 433,295 Z" fill="white"/>
        <path d="M 664,294 L 667,294 Z" fill="white"/>
        <path d="M 545,296 L 551,293 L 557,294 L 554,296 Z" fill="white"/>
        <path d="M 443,294 L 446,294 Z" fill="white"/>
        <path d="M 714,293 L 717,293 Z" fill="white"/>
        <path d="M 688,293 L 690,292 L 703,298 L 699,299 Z" fill="white"/>
        <path d="M 572,293 L 575,293 Z" fill="white"/>
        <path d="M 429,293 L 405,307 L 403,306 L 413,299 L 427,292 Z" fill="white"/>
        <path d="M 686,292 L 689,292 Z" fill="white"/>
        <path d="M 653,292 L 656,291 L 666,296 L 663,297 Z" fill="white"/>
        <path d="M 453,292 L 455,292 Z" fill="white"/>
        <path d="M 651,291 L 654,291 Z" fill="white"/>
        <path d="M 641,291 L 644,290 L 654,295 L 651,296 Z" fill="white"/>
        <path d="M 531,293 L 536,290 L 541,291 L 533,294 Z" fill="white"/>
        <path d="M 506,291 L 479,300 L 477,299 L 486,294 L 502,290 Z" fill="white"/>
        <path d="M 457,291 L 459,291 Z" fill="white"/>
        <path d="M 709,290 L 711,289 L 715,292 L 713,293 Z" fill="white"/>
        <path d="M 678,290 L 680,289 L 684,292 L 682,293 Z" fill="white"/>
        <path d="M 634,290 L 636,290 Z" fill="white"/>
        <path d="M 589,291 L 596,289 L 604,289 L 613,292 L 595,293 Z" fill="white"/>
        <path d="M 518,292 L 524,289 L 531,290 L 520,293 Z" fill="white"/>
        <path d="M 662,289 L 668,288 L 676,292 L 673,293 Z" fill="white"/>
        <path d="M 630,289 L 633,289 Z" fill="white"/>
        <path d="M 611,289 L 619,288 L 626,290 L 628,292 L 623,293 Z" fill="white"/>
        <path d="M 584,289 L 590,289 Z" fill="white"/>
        <path d="M 542,290 L 547,288 L 551,289 L 548,291 Z" fill="white"/>
        <path d="M 530,289 L 532,289 Z" fill="white"/>
        <path d="M 458,289 L 446,293 L 439,293 L 432,296 L 429,295 L 433,292 L 442,289 Z" fill="white"/>
        <path d="M 444,288 L 446,288 Z" fill="white"/>
        <path d="M 507,287 L 509,287 Z" fill="white"/>
        <path d="M 492,287 L 484,290 L 481,289 L 488,286 Z" fill="white"/>
        <path d="M 697,286 L 699,286 Z" fill="white"/>
        <path d="M 681,286 L 694,286 L 727,304 L 736,311 L 734,312 L 704,295 L 693,290 L 690,291 Z" fill="white"/>
        <path d="M 695,285 L 698,285 Z" fill="white"/>
        <path d="M 678,285 L 681,285 Z" fill="white"/>
        <path d="M 625,285 L 628,285 Z" fill="white"/>
        <path d="M 460,285 L 459,287 L 455,288 L 447,287 L 458,284 Z" fill="white"/>
        <path d="M 663,284 L 666,284 Z" fill="white"/>
        <path d="M 642,284 L 645,284 Z" fill="white"/>
        <path d="M 618,284 L 625,284 Z" fill="white"/>
        <path d="M 509,286 L 516,283 L 523,284 L 515,287 Z" fill="white"/>
        <path d="M 629,283 L 631,283 Z" fill="white"/>
        <path d="M 615,283 L 619,283 Z" fill="white"/>
        <path d="M 460,284 L 465,282 L 470,283 L 467,285 Z" fill="white"/>
        <path d="M 675,282 L 677,282 Z" fill="white"/>
        <path d="M 647,282 L 650,281 L 653,283 L 650,284 Z" fill="white"/>
        <path d="M 540,283 L 542,281 L 552,282 L 542,284 Z" fill="white"/>
        <path d="M 642,281 L 645,280 L 647,282 L 645,283 Z" fill="white"/>
        <path d="M 607,281 L 612,281 Z" fill="white"/>
        <path d="M 602,281 L 605,281 Z" fill="white"/>
        <path d="M 461,281 L 464,281 Z" fill="white"/>
        <path d="M 449,281 L 453,281 Z" fill="white"/>
        <path d="M 450,282 L 415,293 L 391,303 L 384,301 L 399,295 L 396,295 L 369,307 L 364,307 L 351,316 L 349,315 L 368,302 L 418,282 L 426,280 L 434,281 L 427,283 L 440,281 Z"
              fill="white"/>
        <path d="M 639,280 L 643,280 Z" fill="white"/>
        <path d="M 631,280 L 635,279 L 643,283 L 640,284 Z" fill="white"/>
        <path d="M 617,280 L 623,279 L 629,282 L 625,283 Z" fill="white"/>
        <path d="M 598,280 L 602,280 Z" fill="white"/>
        <path d="M 551,281 L 555,279 L 583,281 L 580,283 L 553,283 Z" fill="white"/>
        <path d="M 651,279 L 654,278 L 664,283 L 661,284 Z" fill="white"/>
        <path d="M 637,279 L 640,279 Z" fill="white"/>
        <path d="M 629,279 L 631,279 Z" fill="white"/>
        <path d="M 614,279 L 618,279 Z" fill="white"/>
        <path d="M 506,279 L 489,282 L 482,285 L 478,284 L 479,282 L 497,278 Z" fill="white"/>
        <path d="M 649,278 L 652,278 Z" fill="white"/>
        <path d="M 635,278 L 638,278 Z" fill="white"/>
        <path d="M 609,278 L 614,278 Z" fill="white"/>
        <path d="M 638,277 L 641,276 L 644,278 L 641,279 Z" fill="white"/>
        <path d="M 606,277 L 610,277 Z" fill="white"/>
        <path d="M 463,277 L 447,281 L 435,280 L 451,276 Z" fill="white"/>
        <path d="M 652,276 L 655,276 Z" fill="white"/>
        <path d="M 626,276 L 633,275 L 636,277 L 631,278 Z" fill="white"/>
        <path d="M 603,276 L 606,276 Z" fill="white"/>
        <path d="M 587,276 L 594,276 Z" fill="white"/>
        <path d="M 571,276 L 578,276 Z" fill="white"/>
        <path d="M 656,275 L 658,275 Z" fill="white"/>
        <path d="M 650,275 L 653,275 Z" fill="white"/>
        <path d="M 624,275 L 626,275 Z" fill="white"/>
        <path d="M 585,275 L 587,275 Z" fill="white"/>
        <path d="M 654,274 L 657,274 Z" fill="white"/>
        <path d="M 648,274 L 651,274 Z" fill="white"/>
        <path d="M 507,275 L 490,278 L 481,277 L 497,273 Z" fill="white"/>
        <path d="M 652,273 L 655,273 Z" fill="white"/>
        <path d="M 611,273 L 614,273 Z" fill="white"/>
        <path d="M 599,273 L 605,272 L 609,274 L 605,275 Z" fill="white"/>
        <path d="M 583,273 L 587,273 Z" fill="white"/>
        <path d="M 575,273 L 582,273 Z" fill="white"/>
        <path d="M 650,272 L 653,272 Z" fill="white"/>
        <path d="M 610,272 L 612,272 Z" fill="white"/>
        <path d="M 593,272 L 598,272 Z" fill="white"/>
        <path d="M 532,273 L 540,271 L 558,272 L 555,274 Z" fill="white"/>
        <path d="M 648,271 L 650,271 Z" fill="white"/>
        <path d="M 612,271 L 616,271 Z" fill="white"/>
        <path d="M 607,271 L 610,271 Z" fill="white"/>
        <path d="M 558,271 L 561,271 Z" fill="white"/>
        <path d="M 507,274 L 509,273 L 509,271 L 516,270 L 529,272 L 516,275 Z" fill="white"/>
        <path d="M 604,270 L 608,270 Z" fill="white"/>
        <path d="M 553,269 L 555,269 Z" fill="white"/>
        <path d="M 529,269 L 537,269 Z" fill="white"/>
        <path d="M 502,269 L 513,269 Z" fill="white"/>
        <path d="M 589,268 L 594,267 L 597,269 L 592,270 Z" fill="white"/>
        <path d="M 626,266 L 629,265 L 649,273 L 646,274 Z" fill="white"/>
        <path d="M 556,267 L 559,265 L 563,265 L 573,268 L 565,269 Z" fill="white"/>
        <path d="M 554,265 L 557,265 Z" fill="white"/>
        <path d="M 632,263 L 637,262 L 654,266 L 682,279 L 689,284 L 687,285 L 675,280 L 676,281 L 673,282 L 666,278 L 665,275 Z"
              fill="white"/>
        <path d="M 584,263 L 586,263 Z" fill="white"/>
        <path d="M 580,262 L 583,262 Z" fill="white"/>
        <path d="M 528,262 L 537,261 L 553,264 L 549,266 Z" fill="white"/>
        <path d="M 609,261 L 614,261 Z" fill="white"/>
    </g>
</svg>
