<?xml version="1.0" encoding="UTF-8" standalone="no"?>
<!-- Created with Inkscape (http://www.inkscape.org/) -->

<svg
   xmlns:dc="http://purl.org/dc/elements/1.1/"
   xmlns:cc="http://creativecommons.org/ns#"
   xmlns:rdf="http://www.w3.org/1999/02/22-rdf-syntax-ns#"
   xmlns:svg="http://www.w3.org/2000/svg"
   xmlns="http://www.w3.org/2000/svg"
   xmlns:sodipodi="http://sodipodi.sourceforge.net/DTD/sodipodi-0.dtd"
   xmlns:inkscape="http://www.inkscape.org/namespaces/inkscape"
   width="29.129669mm"
   height="29.129316mm"
   viewBox="0 0 29.129669 29.129316"
   version="1.1"
   id="svg4520"
   inkscape:version="0.92.5 (2060ec1f9f, 2020-04-08)"
   sodipodi:docname="box.svg">
  <defs
     id="defs4514">
    <clipPath
       clipPathUnits="userSpaceOnUse"
       id="clipPath3884">
      <path
         d="m 49.181,681.002 c -1.326,0 -2.652,-0.506 -3.663,-1.518 v 0 c -1.013,-1.012 -1.519,-2.338 -1.519,-3.664 v 0 -66.537 c 0,-1.327 0.506,-2.653 1.519,-3.666 v 0 c 1.011,-1.01 2.337,-1.517 3.663,-1.517 v 0 h 66.538 c 1.326,0 2.652,0.507 3.665,1.517 v 0 c 1.012,1.013 1.518,2.339 1.518,3.666 v 0 66.537 c 0,1.326 -0.506,2.652 -1.518,3.664 v 0 c -1.013,1.012 -2.339,1.518 -3.665,1.518 v 0 z"
         id="path3882"
         inkscape:connector-curvature="0" />
    </clipPath>
    <linearGradient
       x1="0"
       y1="0"
       x2="1"
       y2="0"
       gradientUnits="userSpaceOnUse"
       gradientTransform="matrix(0,-76.902344,-76.902344,0,82.450684,681.00244)"
       spreadMethod="pad"
       id="linearGradient3896">
      <stop
         style="stop-opacity:1;stop-color:#c8a063"
         offset="0"
         id="stop3890" />
      <stop
         style="stop-opacity:1;stop-color:#c8a063"
         offset="0.17118372"
         id="stop3892" />
      <stop
         style="stop-opacity:1;stop-color:#98663f"
         offset="1"
         id="stop3894" />
    </linearGradient>
    <clipPath
       clipPathUnits="userSpaceOnUse"
       id="clipPath3906">
      <path
         d="M 0,841.89 H 595.28 V 0 H 0 Z"
         id="path3904"
         inkscape:connector-curvature="0" />
    </clipPath>
    <clipPath
       clipPathUnits="userSpaceOnUse"
       id="clipPath3922">
      <path
         d="m 90.578,623.741 -1.889,-2.703 -1.889,2.703 h -0.377 l -1.89,-2.703 -1.889,2.703 h -0.379 l -1.888,-2.703 -1.888,2.703 h -0.378 l -1.89,-2.703 -1.888,2.703 H 74.224 V 604.1 h 16.453 v 19.641 z"
         id="path3920"
         inkscape:connector-curvature="0" />
    </clipPath>
    <linearGradient
       x1="0"
       y1="0"
       x2="1"
       y2="0"
       gradientUnits="userSpaceOnUse"
       gradientTransform="matrix(0,-33.428406,-33.428406,0,82.450684,624.72803)"
       spreadMethod="pad"
       id="linearGradient3936">
      <stop
         style="stop-opacity:1;stop-color:#c8a063"
         offset="0"
         id="stop3928" />
      <stop
         style="stop-opacity:1;stop-color:#c8a063"
         offset="0.00832711"
         id="stop3930" />
      <stop
         style="stop-opacity:1;stop-color:#98663f"
         offset="0.736221"
         id="stop3932" />
      <stop
         style="stop-opacity:1;stop-color:#98663f"
         offset="1"
         id="stop3934" />
    </linearGradient>
    <clipPath
       clipPathUnits="userSpaceOnUse"
       id="clipPath3946">
      <path
         d="M 0,841.89 H 595.28 V 0 H 0 Z"
         id="path3944"
         inkscape:connector-curvature="0" />
    </clipPath>
  </defs>
  <sodipodi:namedview
     id="base"
     pagecolor="#ffffff"
     bordercolor="#666666"
     borderopacity="1.0"
     inkscape:pageopacity="0.0"
     inkscape:pageshadow="2"
     inkscape:zoom="0.35"
     inkscape:cx="-526.38038"
     inkscape:cy="-110.66677"
     inkscape:document-units="mm"
     inkscape:current-layer="layer1"
     showgrid="false"
     fit-margin-top="1"
     fit-margin-right="1"
     fit-margin-bottom="1"
     fit-margin-left="1"
     inkscape:window-width="1848"
     inkscape:window-height="1016"
     inkscape:window-x="72"
     inkscape:window-y="27"
     inkscape:window-maximized="1" />
  <metadata
     id="metadata4517">
    <rdf:RDF>
      <cc:Work
         rdf:about="">
        <dc:format>image/svg+xml</dc:format>
        <dc:type
           rdf:resource="http://purl.org/dc/dcmitype/StillImage" />
        <dc:title></dc:title>
      </cc:Work>
    </rdf:RDF>
  </metadata>
  <g
     inkscape:label="Capa 1"
     inkscape:groupmode="layer"
     id="layer1"
     transform="translate(-67.078023,-90.423433)">
    <g
       transform="matrix(0.35277777,0,0,-0.35277777,52.556154,331.6658)"
       id="g4512">
      <g
         id="g3878">
        <g
           clip-path="url(#clipPath3884)"
           id="g3880">
          <g
             id="g3886">
            <g
               id="g3888">
              <path
                 inkscape:connector-curvature="0"
                 id="path3898"
                 style="fill:url(#linearGradient3896);stroke:none"
                 d="m 49.181,681.002 c -1.326,0 -2.652,-0.506 -3.663,-1.518 v 0 c -1.013,-1.012 -1.519,-2.338 -1.519,-3.664 v 0 -66.537 c 0,-1.327 0.506,-2.653 1.519,-3.666 v 0 c 1.011,-1.01 2.337,-1.517 3.663,-1.517 v 0 h 66.538 c 1.326,0 2.652,0.507 3.665,1.517 v 0 c 1.012,1.013 1.518,2.339 1.518,3.666 v 0 66.537 c 0,1.326 -0.506,2.652 -1.518,3.664 v 0 c -1.013,1.012 -2.339,1.518 -3.665,1.518 v 0 z" />
            </g>
          </g>
        </g>
      </g>
      <g
         id="g3900">
        <g
           clip-path="url(#clipPath3906)"
           id="g3902">
          <g
             transform="translate(118.4331,607.3042)"
             id="g3908">
            <path
               inkscape:connector-curvature="0"
               id="path3910"
               style="fill:#79502f;fill-opacity:1;fill-rule:nonzero;stroke:none"
               d="m 0,0 c -0.65,-0.564 -1.504,-0.846 -2.357,-0.846 h -67.279 c -0.854,0 -1.707,0.282 -2.358,0.846 -0.105,0.092 -0.198,0.189 -0.286,0.289 0.072,-0.63 0.386,-1.242 0.942,-1.723 0.639,-0.555 1.477,-0.832 2.316,-0.832 h 66.076 c 0.838,0 1.675,0.277 2.316,0.832 0.565,0.49 0.88,1.115 0.944,1.755 C 0.219,0.209 0.117,0.101 0,0" />
          </g>
          <g
             transform="translate(46.4678,677.3208)"
             id="g3912">
            <path
               inkscape:connector-curvature="0"
               id="path3914"
               style="fill:#dac5a4;fill-opacity:1;fill-rule:nonzero;stroke:none"
               d="m 0,0 c 0.65,0.564 1.503,0.847 2.356,0.847 h 67.28 c 0.853,0 1.706,-0.283 2.358,-0.847 0.105,-0.092 0.198,-0.189 0.285,-0.289 -0.072,0.63 -0.386,1.242 -0.941,1.724 -0.64,0.554 -1.478,0.831 -2.316,0.831 H 2.946 C 2.107,2.266 1.27,1.989 0.63,1.435 0.064,0.944 -0.25,0.318 -0.315,-0.322 -0.219,-0.21 -0.117,-0.102 0,0" />
          </g>
        </g>
      </g>
      <g
         id="g3916">
        <g
           clip-path="url(#clipPath3922)"
           id="g3918">
          <g
             id="g3924">
            <g
               id="g3926">
              <path
                 inkscape:connector-curvature="0"
                 id="path3938"
                 style="fill:url(#linearGradient3936);stroke:none"
                 d="m 90.578,623.741 -1.889,-2.703 -1.889,2.703 h -0.377 l -1.89,-2.703 -1.889,2.703 h -0.379 l -1.888,-2.703 -1.888,2.703 h -0.378 l -1.89,-2.703 -1.888,2.703 H 74.224 V 604.1 h 16.453 v 19.641 z" />
            </g>
          </g>
        </g>
      </g>
      <g
         id="g3940">
        <g
           clip-path="url(#clipPath3946)"
           id="g3942">
          <g
             transform="translate(72.6128,656.1089)"
             id="g3948">
            <path
               inkscape:connector-curvature="0"
               id="path3950"
               style="fill:#000000;fill-opacity:1;fill-rule:nonzero;stroke:none"
               d="M 0,0 V 10.339 L 8.952,5.205 v -10.34 z" />
          </g>
          <g
             transform="translate(64.7607,666.6729)"
             id="g3952">
            <path
               inkscape:connector-curvature="0"
               id="path3954"
               style="fill:#000000;fill-opacity:1;fill-rule:nonzero;stroke:none"
               d="M 0,0 C 0,0.8 -0.647,1.449 -1.448,1.449 -2.247,1.449 -2.895,0.8 -2.895,0 v -13.479 c 0,-1.596 0.085,-2.117 1.083,-3.4 1.458,-1.873 6.87,-8.259 7.773,-9.229 0.532,-0.574 0.624,-1.163 0.624,-2.36 v -6.552 c 0,-0.387 0.313,-0.7 0.7,-0.7 h 7.414 c 0.386,0 0.698,0.313 0.698,0.7 -0.277,3.36 -0.416,6.482 -0.554,8.842 -0.073,1.247 -0.069,4.024 -1.873,5.83 -1.284,1.283 -8.432,7.805 -9.439,8.812 -0.565,0.565 -1.481,0.565 -2.047,0 -0.565,-0.565 -0.565,-1.482 0,-2.047 1.631,-1.63 2.291,-2.29 2.95,-2.95 0.521,-0.519 0.428,-1.167 0.139,-1.457 -0.383,-0.381 -1.067,-0.545 -1.596,-0.034 -0.989,0.954 -2.756,2.325 -2.789,2.849 0,0.395 -0.195,5.582 -0.195,5.998 C -0.007,-8.205 0,-1.022 0,0" />
          </g>
          <g
             transform="translate(100.1392,666.6729)"
             id="g3956">
            <path
               inkscape:connector-curvature="0"
               id="path3958"
               style="fill:#000000;fill-opacity:1;fill-rule:nonzero;stroke:none"
               d="M 0,0 C 0,0.8 0.648,1.449 1.448,1.449 2.247,1.449 2.895,0.8 2.895,0 v -13.479 c 0,-1.596 -0.085,-2.117 -1.083,-3.4 -1.457,-1.873 -6.87,-8.259 -7.772,-9.229 -0.533,-0.574 -0.625,-1.163 -0.625,-2.36 v -6.552 c 0,-0.387 -0.312,-0.7 -0.7,-0.7 h -7.414 c -0.385,0 -0.698,0.313 -0.698,0.7 0.276,3.36 0.416,6.482 0.554,8.842 0.074,1.247 0.069,4.024 1.874,5.83 1.284,1.283 8.431,7.805 9.438,8.812 0.565,0.565 1.482,0.565 2.047,0 0.566,-0.565 0.566,-1.482 0,-2.047 -1.631,-1.63 -2.29,-2.29 -2.95,-2.95 -0.52,-0.519 -0.428,-1.167 -0.138,-1.457 0.382,-0.381 1.066,-0.545 1.596,-0.034 0.989,0.954 2.756,2.325 2.788,2.849 0,0.395 0.195,5.582 0.195,5.998 C 0.007,-8.205 0,-1.022 0,0" />
          </g>
          <g
             transform="translate(92.0576,656.0298)"
             id="g3960">
            <path
               inkscape:connector-curvature="0"
               id="path3962"
               style="fill:#000000;fill-opacity:1;fill-rule:nonzero;stroke:none"
               d="m 0,0 -8.955,-5.17 -0.028,10.32 8.955,5.17 z" />
          </g>
          <g
             transform="translate(82.4033,672.9614)"
             id="g3964">
            <path
               inkscape:connector-curvature="0"
               id="path3966"
               style="fill:#000000;fill-opacity:1;fill-rule:nonzero;stroke:none"
               d="m 0,0 8.954,-5.17 -8.923,-5.184 -8.954,5.169 z" />
          </g>
        </g>
      </g>
    </g>
  </g>
</svg>
